# 3ds Max Wavefront OBJ Exporter v0.97b - (c)2007 guruware
# File Created: 22.10.2015 22:32:11

mtllib 3d-model.mtl

#
# object Layer0_001
#

v  -1055.6875 0.0000 3274.2188
v  -1055.6875 0.0000 2678.9063
v  1055.6875 0.0000 2678.9063
v  1055.6875 0.0000 3274.2188
v  -1055.6875 441.3250 2678.9063
v  -1055.6875 441.3250 3274.2188
v  1055.6875 441.3250 3274.2188
v  1055.6875 441.3250 2678.9063
v  1055.6875 4413.2500 -3274.2188
v  1055.6875 882.6499 2083.5938
v  1055.6875 1323.9750 1488.2813
v  1055.6875 1765.2999 892.9688
v  1055.6875 2206.6250 297.6563
v  1055.6875 2647.9500 -297.6563
v  1055.6875 3089.2749 -892.9688
v  1055.6875 3530.5999 -1488.2813
v  1055.6875 3971.9250 -2083.5938
v  1055.6875 4413.2500 -2083.5938
v  1055.6875 4413.2500 -2678.9063
v  1055.6875 4854.5747 -2678.9063
v  1055.6875 4854.5747 -3274.2188
v  1055.6875 3971.9250 -1488.2813
v  1055.6875 3530.5999 -892.9688
v  1055.6875 3089.2749 -297.6563
v  1055.6875 2647.9500 297.6563
v  1055.6875 2206.6250 892.9688
v  1055.6875 1765.2999 1488.2813
v  1055.6875 1323.9750 2083.5938
v  1055.6875 882.6499 2678.9063
v  -1055.6875 882.6499 2678.9063
v  -1055.6875 882.6499 2083.5938
v  -1055.6875 1323.9750 2083.5938
v  -1055.6875 1323.9750 1488.2813
v  -1055.6875 1765.2999 1488.2813
v  -1055.6875 1765.2999 892.9688
v  -1055.6875 2206.6250 892.9688
v  -1055.6875 2206.6250 297.6563
v  -1055.6875 2647.9500 297.6563
v  -1055.6875 2647.9500 -297.6563
v  -1055.6875 3089.2749 -297.6563
v  -1055.6875 3089.2749 -892.9688
v  -1055.6875 3530.5999 -892.9688
v  -1055.6875 3530.5999 -1488.2813
v  -1055.6875 3971.9250 -1488.2813
v  -1055.6875 3971.9250 -2083.5938
v  -1055.6875 4413.2500 -3274.2188
v  -1055.6875 4413.2500 -2678.9063
v  -1055.6875 4413.2500 -2083.5938
v  -1055.6875 4854.5747 -3274.2188
v  -1055.6875 4854.5747 -2678.9063
# 50 vertices

vn 0.0000 -1.0000 -0.0000
vn 0.0000 1.0000 -0.0000
vn 1.0000 0.0000 -0.0000
vn 0.0000 0.0000 1.0000
vn -1.0000 0.0000 -0.0000
vn 0.0000 0.0000 -1.0000
vn 0.0000 -0.8033 -0.5955
# 7 vertex normals

vt 0.0000 0.0000 0.0000
# 1 texture coords

g Layer0_001
usemtl wire_028089177
s off
f 1/1/1 2/1/1 3/1/1 4/1/1 
f 5/1/2 6/1/2 7/1/2 8/1/2 
f 7/1/3 4/1/3 3/1/3 8/1/3 
f 8/1/3 3/1/3 9/1/3 10/1/3 
f 11/1/3 10/1/3 9/1/3 12/1/3 
f 13/1/3 12/1/3 9/1/3 14/1/3 
f 15/1/3 14/1/3 9/1/3 16/1/3 
f 17/1/3 16/1/3 9/1/3 18/1/3 
f 19/1/3 18/1/3 9/1/3 20/1/3 
f 20/1/3 9/1/3 21/1/3 
f 16/1/3 17/1/3 22/1/3 
f 15/1/3 16/1/3 23/1/3 
f 14/1/3 15/1/3 24/1/3 
f 13/1/3 14/1/3 25/1/3 
f 12/1/3 13/1/3 26/1/3 
f 11/1/3 12/1/3 27/1/3 
f 10/1/3 11/1/3 28/1/3 
f 8/1/3 10/1/3 29/1/3 
f 1/1/4 4/1/4 7/1/4 6/1/4 
f 5/1/4 8/1/4 29/1/4 30/1/4 
f 31/1/2 30/1/2 29/1/2 10/1/2 
f 31/1/4 10/1/4 28/1/4 32/1/4 
f 33/1/2 32/1/2 28/1/2 11/1/2 
f 33/1/4 11/1/4 27/1/4 34/1/4 
f 35/1/2 34/1/2 27/1/2 12/1/2 
f 35/1/4 12/1/4 26/1/4 36/1/4 
f 37/1/2 36/1/2 26/1/2 13/1/2 
f 37/1/4 13/1/4 25/1/4 38/1/4 
f 39/1/2 38/1/2 25/1/2 14/1/2 
f 39/1/4 14/1/4 24/1/4 40/1/4 
f 41/1/2 40/1/2 24/1/2 15/1/2 
f 41/1/4 15/1/4 23/1/4 42/1/4 
f 43/1/2 42/1/2 23/1/2 16/1/2 
f 43/1/4 16/1/4 22/1/4 44/1/4 
f 45/1/2 44/1/2 22/1/2 17/1/2 
f 31/1/5 32/1/5 33/1/5 46/1/5 
f 31/1/5 46/1/5 2/1/5 5/1/5 
f 31/1/5 5/1/5 30/1/5 
f 5/1/5 2/1/5 1/1/5 6/1/5 
f 35/1/5 46/1/5 33/1/5 34/1/5 
f 37/1/5 46/1/5 35/1/5 36/1/5 
f 39/1/5 46/1/5 37/1/5 38/1/5 
f 41/1/5 46/1/5 39/1/5 40/1/5 
f 43/1/5 46/1/5 41/1/5 42/1/5 
f 45/1/5 46/1/5 43/1/5 44/1/5 
f 47/1/5 46/1/5 45/1/5 48/1/5 
f 49/1/5 46/1/5 47/1/5 50/1/5 
f 45/1/4 17/1/4 18/1/4 48/1/4 
f 47/1/2 48/1/2 18/1/2 19/1/2 
f 9/1/6 46/1/6 49/1/6 21/1/6 
f 47/1/4 19/1/4 20/1/4 50/1/4 
f 49/1/2 50/1/2 20/1/2 21/1/2 
f 2/1/7 46/1/7 9/1/7 3/1/7 
# 43 polygons - 10 triangles

